<?xml version="1.0" standalone="no"?>
<!DOCTYPE svg PUBLIC "-//W3C//DTD SVG 20010904//EN"
 "http://www.w3.org/TR/2001/REC-SVG-20010904/DTD/svg10.dtd">
<svg version="1.0" xmlns="http://www.w3.org/2000/svg"
 width="50.000000pt" height="50.000000pt" viewBox="0 0 50.000000 50.000000"
 preserveAspectRatio="xMidYMid meet">

<g transform="translate(0.000000,50.000000) scale(0.100000,-0.100000)"
fill="#000000" stroke="none">
<path d="M168 490 c-48 -14 -83 -47 -111 -102 -24 -47 -26 -57 -16 -92 8 -28
8 -46 0 -63 -17 -38 -13 -63 17 -91 15 -15 40 -44 55 -65 75 -100 209 -100
284 0 15 21 40 50 55 65 31 29 36 69 13 88 -12 10 -14 24 -9 59 9 69 -10 128
-49 151 -18 11 -40 20 -50 20 -11 0 -30 9 -44 20 -27 21 -93 26 -145 10z m27
-20 c-3 -5 -12 -10 -19 -10 -22 0 -68 -41 -62 -56 3 -7 -5 -26 -18 -41 -13
-16 -26 -37 -28 -48 -4 -18 -6 -18 -12 -3 -8 19 21 86 52 122 25 28 102 60 87
36z m162 -120 c40 -24 73 -87 73 -137 -1 -51 -29 -110 -74 -153 -34 -32 -42
-35 -99 -35 -78 0 -115 24 -151 97 -30 60 -34 124 -10 173 16 34 43 44 124 45
19 1 49 7 65 15 39 18 35 18 72 -5z m-291 -197 c-10 -10 -27 40 -20 60 7 19 9
17 16 -17 5 -21 6 -41 4 -43z m398 52 c3 -8 1 -15 -4 -15 -6 0 -10 7 -10 15 0
8 2 15 4 15 2 0 6 -7 10 -15z m-12 -47 c-7 -7 -12 -8 -12 -2 0 14 12 26 19 19
2 -3 -1 -11 -7 -17z"/>
<path d="M145 270 c-4 -6 7 -10 25 -10 18 0 29 4 25 10 -3 6 -15 10 -25 10
-10 0 -22 -4 -25 -10z"/>
<path d="M323 263 c9 -2 25 -2 35 0 9 3 1 5 -18 5 -19 0 -27 -2 -17 -5z"/>
<path d="M160 235 c0 -9 5 -15 11 -13 6 2 11 8 11 13 0 5 -5 11 -11 13 -6 2
-11 -4 -11 -13z"/>
<path d="M320 236 c0 -9 7 -16 16 -16 17 0 14 22 -4 28 -7 2 -12 -3 -12 -12z"/>
<path d="M243 163 c9 -2 23 -2 30 0 6 3 -1 5 -18 5 -16 0 -22 -2 -12 -5z"/>
<path d="M200 110 c0 -17 61 -27 94 -14 9 3 16 10 16 15 0 5 -12 3 -26 -3 -19
-9 -33 -9 -55 -1 -16 6 -29 8 -29 3z"/>
<path d="M236 61 c-3 -5 5 -8 19 -8 14 0 22 3 19 8 -3 5 -11 9 -19 9 -8 0 -16
-4 -19 -9z"/>
</g>
</svg>
