<?xml version="1.0" standalone="no"?>
<!DOCTYPE svg PUBLIC "-//W3C//DTD SVG 20010904//EN"
 "http://www.w3.org/TR/2001/REC-SVG-20010904/DTD/svg10.dtd">
<svg version="1.0" xmlns="http://www.w3.org/2000/svg"
 width="28.000000pt" height="28.000000pt" viewBox="0 0 28.000000 28.000000"
 preserveAspectRatio="xMidYMid meet">

<g transform="translate(0.000000,28.000000) scale(0.100000,-0.100000)"
fill="#000000" stroke="none">
<path d="M43 261 c-3 -11 -13 -21 -24 -24 -27 -7 -26 -57 1 -64 11 -3 20 -14
20 -24 0 -27 60 -27 67 0 3 11 13 21 24 24 27 7 27 67 0 67 -10 0 -21 9 -24
20 -7 27 -57 28 -64 1z m47 -21 c0 -13 7 -20 20 -20 11 0 20 -7 20 -15 0 -8
-9 -15 -20 -15 -13 0 -20 -7 -20 -20 0 -11 -7 -20 -15 -20 -8 0 -15 9 -15 20
0 13 -7 20 -20 20 -11 0 -20 7 -20 15 0 8 9 15 20 15 13 0 20 7 20 20 0 11 7
20 15 20 8 0 15 -9 15 -20z"/>
<path d="M155 270 c3 -5 28 -10 56 -10 l49 0 0 -112 c0 -87 -3 -109 -12 -100
-15 15 -48 16 -48 2 0 -5 6 -10 13 -10 8 0 22 -9 32 -20 10 -11 22 -20 27 -20
4 0 8 63 8 140 l0 140 -66 0 c-41 0 -63 -4 -59 -10z"/>
<path d="M2 88 l3 -43 44 -3 c24 -2 49 2 54 7 8 8 -3 11 -36 11 -45 0 -47 1
-47 29 0 17 -5 33 -11 36 -7 5 -9 -8 -7 -37z"/>
<path d="M138 48 c9 -9 15 -9 24 0 9 9 7 12 -12 12 -19 0 -21 -3 -12 -12z"/>
</g>
</svg>
