<?xml version="1.0" standalone="no"?>
<!DOCTYPE svg PUBLIC "-//W3C//DTD SVG 20010904//EN"
 "http://www.w3.org/TR/2001/REC-SVG-20010904/DTD/svg10.dtd">
<svg version="1.0" xmlns="http://www.w3.org/2000/svg"
 width="50.000000pt" height="50.000000pt" viewBox="0 0 50.000000 50.000000"
 preserveAspectRatio="xMidYMid meet">

<g transform="translate(0.000000,50.000000) scale(0.100000,-0.100000)"
fill="#000000" stroke="none">
<path d="M70 390 c0 -100 7 -129 25 -100 3 6 31 10 61 10 l54 0 0 -65 0 -65
114 0 c66 0 117 -4 121 -10 17 -28 25 -1 25 90 l0 100 -55 0 -55 0 0 75 0 75
-145 0 -145 0 0 -110z m270 10 l0 -90 -114 0 c-63 0 -121 -3 -130 -6 -14 -5
-16 6 -16 83 0 49 3 93 7 96 3 4 62 7 130 7 l123 0 0 -90z m120 -140 l0 -80
-115 0 -115 0 0 60 0 60 65 0 c58 0 65 2 65 20 0 17 7 20 50 20 l50 0 0 -80z"/>
<path d="M140 420 c0 -6 30 -10 70 -10 40 0 70 4 70 10 0 6 -30 10 -70 10 -40
0 -70 -4 -70 -10z"/>
<path d="M148 373 c12 -2 32 -2 45 0 12 2 2 4 -23 4 -25 0 -35 -2 -22 -4z"/>
<path d="M238 373 c6 -2 18 -2 25 0 6 3 1 5 -13 5 -14 0 -19 -2 -12 -5z"/>
<path d="M310 280 c0 -5 23 -10 50 -10 28 0 50 5 50 10 0 6 -22 10 -50 10 -27
0 -50 -4 -50 -10z"/>
<path d="M280 240 c0 -5 23 -10 50 -10 28 0 50 5 50 10 0 6 -22 10 -50 10 -27
0 -50 -4 -50 -10z"/>
<path d="M29 221 c-17 -18 -29 -40 -29 -56 0 -35 50 -85 85 -85 35 0 85 50 85
85 0 35 -50 85 -85 85 -16 0 -38 -12 -56 -29z m121 -31 c10 -25 10 -34 -4 -55
-26 -40 -60 -51 -90 -31 -62 40 -54 96 14 96 21 0 42 5 45 10 11 17 22 11 35
-20z"/>
<path d="M385 115 c-14 -13 -25 -33 -25 -45 0 -27 43 -70 70 -70 27 0 70 43
70 70 0 27 -43 70 -70 70 -11 0 -32 -11 -45 -25z m93 -39 c4 -35 -13 -56 -48
-56 -33 0 -53 21 -48 52 2 18 11 24 38 29 49 9 55 6 58 -25z"/>
<path d="M430 80 c0 -5 5 -10 11 -10 5 0 7 5 4 10 -3 6 -8 10 -11 10 -2 0 -4
-4 -4 -10z"/>
</g>
</svg>
